<svg xmlns="http://www.w3.org/2000/svg" width="34" height="34" viewBox="0 0 34 34"><path d="M34,17c-4.617,0-5.2.02-7.01.1a12.475,12.475,0,0,0-4.126.79,8.7,8.7,0,0,0-4.974,4.971,12.418,12.418,0,0,0-.79,4.126C17.021,28.8,17,29.383,17,34s.021,5.195.1,7.008a12.494,12.494,0,0,0,.79,4.126,8.7,8.7,0,0,0,4.971,4.974,12.486,12.486,0,0,0,4.127.79c1.813.083,2.392.1,7.009.1s5.195-.02,7.008-.1a12.493,12.493,0,0,0,4.128-.79,8.71,8.71,0,0,0,4.971-4.973,12.6,12.6,0,0,0,.79-4.126c.081-1.813.1-2.391.1-7.008s-.021-5.2-.1-7.01a12.6,12.6,0,0,0-.79-4.126,8.7,8.7,0,0,0-4.973-4.972,12.514,12.514,0,0,0-4.13-.79C39.192,17.02,38.614,17,34,17Zm-1.525,3.064H34c4.539,0,5.077.016,6.869.1a9.412,9.412,0,0,1,3.156.585,5.633,5.633,0,0,1,3.226,3.226,9.393,9.393,0,0,1,.585,3.156c.081,1.792.1,2.33.1,6.867s-.018,5.075-.1,6.867a9.4,9.4,0,0,1-.585,3.156,5.637,5.637,0,0,1-3.226,3.224,9.378,9.378,0,0,1-3.156.586c-1.792.081-2.33.1-6.869.1s-5.077-.018-6.869-.1a9.43,9.43,0,0,1-3.157-.586,5.632,5.632,0,0,1-3.227-3.225,9.393,9.393,0,0,1-.585-3.156c-.081-1.792-.1-2.33-.1-6.87s.016-5.075.1-6.867a9.412,9.412,0,0,1,.585-3.156,5.634,5.634,0,0,1,3.227-3.227,9.391,9.391,0,0,1,3.157-.586c1.568-.071,2.176-.092,5.344-.1Zm10.6,2.823a2.04,2.04,0,1,0,2.04,2.04,2.04,2.04,0,0,0-2.04-2.04ZM34,25.27A8.729,8.729,0,1,0,42.73,34,8.731,8.731,0,0,0,34,25.27Zm0,3.064A5.667,5.667,0,1,1,28.334,34,5.667,5.667,0,0,1,34,28.333Z" transform="translate(-17 -17)" fill="#082e22"/></svg>