<svg xmlns="http://www.w3.org/2000/svg" width="25.801" height="25.802" viewBox="0 0 25.801 25.802">
  <g id="グループ_270" data-name="グループ 270" transform="translate(1131 -12826)">
    <path id="パス_90" data-name="パス 90" d="M29.9,17c-3.5,0-3.943.015-5.319.078a9.467,9.467,0,0,0-3.131.6,6.6,6.6,0,0,0-3.774,3.773,9.423,9.423,0,0,0-.6,3.131C17.016,25.957,17,26.4,17,29.9s.016,3.942.078,5.318a9.481,9.481,0,0,0,.6,3.131,6.6,6.6,0,0,0,3.772,3.774,9.475,9.475,0,0,0,3.132.6c1.376.063,1.816.078,5.319.078s3.942-.015,5.318-.078a9.481,9.481,0,0,0,3.133-.6,6.61,6.61,0,0,0,3.773-3.774,9.562,9.562,0,0,0,.6-3.131c.062-1.376.078-1.815.078-5.318s-.016-3.943-.078-5.319a9.558,9.558,0,0,0-.6-3.131,6.6,6.6,0,0,0-3.773-3.773,9.5,9.5,0,0,0-3.134-.6C33.841,17.015,33.4,17,29.9,17Zm-1.157,2.325H29.9c3.444,0,3.853.012,5.213.074a7.142,7.142,0,0,1,2.4.444,4.275,4.275,0,0,1,2.448,2.448,7.128,7.128,0,0,1,.444,2.395c.062,1.36.075,1.768.075,5.211s-.013,3.851-.075,5.211a7.135,7.135,0,0,1-.444,2.395,4.278,4.278,0,0,1-2.448,2.447,7.116,7.116,0,0,1-2.4.445c-1.36.062-1.768.075-5.213.075s-3.853-.013-5.213-.075a7.156,7.156,0,0,1-2.4-.445A4.274,4.274,0,0,1,19.844,37.5a7.128,7.128,0,0,1-.444-2.395c-.062-1.36-.074-1.768-.074-5.214s.012-3.851.074-5.211a7.142,7.142,0,0,1,.444-2.4,4.275,4.275,0,0,1,2.449-2.449,7.127,7.127,0,0,1,2.4-.445c1.19-.054,1.651-.07,4.056-.073Zm8.044,2.142a1.548,1.548,0,1,0,1.548,1.548,1.548,1.548,0,0,0-1.548-1.548ZM29.9,23.276A6.624,6.624,0,1,0,36.526,29.9,6.625,6.625,0,0,0,29.9,23.276Zm0,2.325a4.3,4.3,0,1,1-4.3,4.3A4.3,4.3,0,0,1,29.9,25.6Z" transform="translate(-1148 12809)" fill="#fff"/>
  </g>
</svg>
